<svg width="153" height="42" viewBox="0 0 153 42" fill="none" xmlns="http://www.w3.org/2000/svg">
<path d="M12.835 39.8131L8.65997 32.5811L14.787 21.9971L18.681 28.7421L41.667 28.7301L35.145 39.9131L12.835 39.8131V39.8131Z" fill="#FFAD64"/>
<path d="M45.771 21.5481L41.596 28.7801L29.366 28.7661L33.26 22.0211L21.757 2.12109L34.703 2.17809L45.771 21.5481V21.5481Z" fill="#ADD4D3"/>
<path d="M13.479 2.08303H21.829L27.932 12.681H20.144L8.66002 32.594L2.23602 21.354L13.48 2.08203L13.479 2.08303Z" fill="#FB8351"/>
<path fill-rule="evenodd" clip-rule="evenodd" d="M22.847 0.407991L22.822 0.36499H12.492L0.254028 21.345L8.65403 36.043L8.66503 36.026L11.841 41.526L36.129 41.636L44.659 27.01H44.6L47.751 21.553L35.701 0.464991L22.846 0.407991H22.847ZM30.838 14.4H30.903L24.83 3.85199L33.704 3.89199L43.79 21.543L40.633 27.011L32.359 27.016L35.244 22.02L30.838 14.398V14.4ZM20.743 3.79999L24.884 10.963H19.151L9.33603 27.984L8.66603 29.141L4.22103 21.362L14.465 3.79999H20.743ZM16.763 21.983L21.136 14.399H26.87L31.277 22.022L28.391 27.019L19.673 27.024L16.763 21.983V21.983ZM10.647 32.588L12.311 29.703L14.785 25.429L17.69 30.46L26.407 30.455L26.393 30.48L38.649 30.494L34.16 38.191L13.83 38.1L10.647 32.588V32.588Z" fill="#333237"/>
<path d="M57.757 35.6591V27.6171H54.785V26.7141H61.868V27.6171H58.896V35.6591H57.756H57.757ZM65.033 35.7981C63.857 35.7981 62.977 35.5151 62.393 34.9511C61.81 34.3861 61.519 33.5151 61.519 32.3391C61.519 31.2841 61.769 30.4551 62.269 29.8531C62.778 29.2431 63.579 28.9371 64.671 28.9371C65.32 28.9371 65.852 29.0571 66.269 29.2971C66.695 29.5291 67.009 29.8531 67.213 30.2701C67.426 30.6771 67.533 31.1401 67.533 31.6591V32.8951H62.658C62.695 33.3951 62.801 33.7881 62.977 34.0751C63.162 34.3631 63.435 34.5711 63.797 34.7011C64.167 34.8211 64.653 34.8811 65.255 34.8811C65.931 34.8811 66.551 34.7651 67.115 34.5341V35.4231C66.829 35.5431 66.505 35.6361 66.144 35.7011C65.7774 35.7671 65.4055 35.7996 65.033 35.7981V35.7981ZM62.658 32.0761H66.518V31.5341C66.518 30.9971 66.375 30.5841 66.088 30.2981C65.81 30.0011 65.348 29.8531 64.699 29.8531C63.912 29.8531 63.375 30.0381 63.089 30.4091C62.801 30.7791 62.658 31.3351 62.658 32.0761ZM72.313 35.7981C71.165 35.7981 70.313 35.5011 69.758 34.9081C69.202 34.3081 68.924 33.4601 68.924 32.3681C68.924 31.2101 69.239 30.3481 69.869 29.7841C70.499 29.2191 71.346 28.9371 72.41 28.9371C72.846 28.9371 73.207 28.9691 73.494 29.0341C73.781 29.0891 74.059 29.1821 74.327 29.3121V30.2141C73.827 29.9741 73.257 29.8541 72.619 29.8541C71.804 29.8541 71.174 30.0481 70.729 30.4371C70.285 30.8171 70.063 31.4601 70.063 32.3671C70.063 33.2371 70.258 33.8771 70.647 34.2841C71.035 34.6821 71.679 34.8811 72.577 34.8811C73.216 34.8811 73.804 34.7611 74.341 34.5201V35.4371C74.054 35.5571 73.744 35.6451 73.411 35.7011C73.086 35.7651 72.721 35.7981 72.313 35.7981V35.7981ZM75.618 35.6591V26.2981H76.757V29.7841C77.062 29.5341 77.419 29.3301 77.826 29.1731C78.243 29.0151 78.724 28.9371 79.27 28.9371C80.067 28.9371 80.664 29.1311 81.062 29.5201C81.46 29.9091 81.659 30.5201 81.659 31.3531V35.6591H80.52V31.3951C80.52 30.8211 80.39 30.4231 80.132 30.2001C79.882 29.9701 79.465 29.8531 78.882 29.8531C78.512 29.8531 78.127 29.9371 77.729 30.1031C77.3662 30.2438 77.0356 30.4564 76.757 30.7281V35.6581H75.617L75.618 35.6591Z" fill="#333237"/>
<path d="M86.202 35.7979C85.276 35.7979 84.535 35.5939 83.98 35.1869C83.424 34.7789 83.146 34.2329 83.146 33.5469C83.146 32.9179 83.341 32.3769 83.73 31.9229C84.118 31.4689 84.65 31.0659 85.327 30.7139C84.966 30.3539 84.66 30.0149 84.41 29.7009C84.16 29.3859 84.035 29.0059 84.035 28.5609C84.035 28.0059 84.225 27.5379 84.605 27.1589C84.993 26.7699 85.54 26.5759 86.243 26.5759C86.929 26.5759 87.461 26.7559 87.841 27.1169C88.22 27.4779 88.41 27.9599 88.41 28.5619C88.41 29.0619 88.276 29.4829 88.007 29.8259C87.739 30.1679 87.354 30.5159 86.854 30.8669L89.16 33.2149C89.317 32.8719 89.396 32.4369 89.396 31.9089V31.7149H90.299V31.9089C90.299 32.2699 90.257 32.6219 90.174 32.9649C90.1024 33.2785 89.9805 33.5783 89.813 33.8529L91.063 35.1169L90.368 35.7419L89.257 34.6449C88.933 35.0429 88.512 35.3349 87.993 35.5199C87.475 35.7049 86.878 35.7979 86.202 35.7979V35.7979ZM86.146 30.3119C86.581 30.0429 86.91 29.7889 87.132 29.5479C87.354 29.2979 87.466 28.9829 87.466 28.6029C87.466 28.2509 87.368 27.9729 87.174 27.7699C86.989 27.5569 86.679 27.4499 86.244 27.4499C85.799 27.4499 85.474 27.5619 85.271 27.7839C85.0749 28.0112 84.971 28.3038 84.98 28.6039C84.98 28.8999 85.081 29.1729 85.285 29.4229C85.498 29.6729 85.785 29.9689 86.146 30.3119V30.3119ZM86.202 34.9779C86.739 34.9779 87.197 34.8999 87.577 34.7419C87.966 34.5759 88.294 34.3299 88.563 34.0059L86.021 31.4089C85.419 31.6869 84.971 31.9879 84.674 32.3119C84.387 32.6269 84.244 33.0289 84.244 33.5199C84.244 34.0009 84.428 34.3669 84.799 34.6169C85.169 34.8579 85.637 34.9779 86.202 34.9779V34.9779ZM55.233 20.2219V7.83691H58.849V17.4529H64.426V20.2219H55.233ZM70.242 20.4139C68.422 20.4139 67.075 20.0099 66.203 19.2029C65.344 18.3949 64.915 17.2149 64.915 15.6639C64.915 14.1259 65.351 12.9529 66.223 12.1439C67.094 11.3239 68.434 10.9139 70.242 10.9139C72.062 10.9139 73.409 11.3239 74.28 12.1439C75.165 12.9529 75.607 14.1259 75.607 15.6639C75.607 17.2149 75.171 18.3939 74.3 19.2029C73.428 20.0099 72.075 20.4139 70.242 20.4139V20.4139ZM70.242 17.7789C70.832 17.7789 71.255 17.6129 71.512 17.2789C71.78 16.9459 71.915 16.4079 71.915 15.6639C71.915 14.9339 71.78 14.4009 71.511 14.0679C71.255 13.7219 70.831 13.5479 70.241 13.5479C69.665 13.5479 69.248 13.7219 68.991 14.0679C68.736 14.4009 68.607 14.9329 68.607 15.6639C68.607 16.4079 68.736 16.9459 68.992 17.2789C69.248 17.6129 69.665 17.7789 70.242 17.7789V17.7789ZM80.962 23.6059C80.513 23.6059 80.026 23.5869 79.501 23.5489C78.9985 23.5256 78.4978 23.4742 78.001 23.3949C77.61 23.3345 77.2242 23.2443 76.847 23.1249V20.8179C77.2366 20.9437 77.635 21.04 78.039 21.1059C78.501 21.1829 78.969 21.2409 79.443 21.2799C79.917 21.3179 80.353 21.3369 80.751 21.3369C81.431 21.3369 81.962 21.2989 82.347 21.2219C82.744 21.1579 82.943 21.0359 82.943 20.8559C82.943 20.7029 82.879 20.5999 82.751 20.5489C82.622 20.5099 82.379 20.4909 82.02 20.4909H79.616C78.68 20.4909 77.956 20.3439 77.443 20.0489C76.943 19.7409 76.693 19.2859 76.693 18.6829C76.693 17.8369 77.161 17.2479 78.097 16.9139C77.571 16.6439 77.187 16.3049 76.943 15.8939C76.699 15.4839 76.578 14.9649 76.578 14.3369C76.578 13.1569 76.975 12.2919 77.77 11.7409C78.578 11.1899 79.738 10.9139 81.25 10.9139C81.571 10.9139 81.93 10.9399 82.328 10.9909C82.725 11.0289 83.013 11.0679 83.193 11.1059H86.77L86.693 13.2989H85.48C85.711 13.5939 85.827 13.9529 85.827 14.3759C85.827 15.3119 85.551 16.0559 85 16.6059C84.461 17.1449 83.609 17.4139 82.442 17.4139C82.275 17.4139 82.096 17.4079 81.903 17.3939C81.7243 17.37 81.5448 17.351 81.365 17.3369C81.1159 17.3557 80.8705 17.4075 80.635 17.4909C80.429 17.5679 80.327 17.6959 80.327 17.8759C80.327 18.0039 80.384 18.0939 80.5 18.1449C80.615 18.1829 80.775 18.2029 80.98 18.2029H83.077C84.012 18.2029 84.75 18.4209 85.288 18.8559C85.827 19.2919 86.096 19.9329 86.096 20.7799C86.096 21.6769 85.679 22.3699 84.846 22.8559C84.012 23.3559 82.718 23.6059 80.961 23.6059H80.962ZM81.27 15.4329C81.834 15.4329 82.225 15.3369 82.443 15.1449C82.661 14.9529 82.77 14.6319 82.77 14.1829C82.77 13.7349 82.66 13.4079 82.443 13.2029C82.225 12.9969 81.833 12.8949 81.27 12.8949C80.744 12.8949 80.36 12.9969 80.116 13.2029C79.886 13.3949 79.77 13.7219 79.77 14.1829C79.77 14.6189 79.879 14.9399 80.097 15.1449C80.327 15.3369 80.719 15.4329 81.27 15.4329ZM92.666 20.4139C90.845 20.4139 89.499 20.0099 88.627 19.2029C87.768 18.3949 87.339 17.2149 87.339 15.6639C87.339 14.1259 87.774 12.9529 88.646 12.1439C89.518 11.3239 90.858 10.9139 92.666 10.9139C94.486 10.9139 95.832 11.3239 96.704 12.1439C97.589 12.9529 98.031 14.1259 98.031 15.6639C98.031 17.2149 97.595 18.3939 96.723 19.2029C95.851 20.0099 94.499 20.4139 92.666 20.4139V20.4139ZM92.666 17.7789C93.255 17.7789 93.678 17.6129 93.935 17.2789C94.204 16.9459 94.339 16.4079 94.339 15.6639C94.339 14.9339 94.204 14.4009 93.935 14.0679C93.678 13.7219 93.255 13.5479 92.666 13.5479C92.089 13.5479 91.672 13.7219 91.415 14.0679C91.159 14.4009 91.031 14.9329 91.031 15.6639C91.031 16.4079 91.159 16.9459 91.415 17.2789C91.672 17.6129 92.089 17.7789 92.666 17.7789Z" fill="#FB8351"/>
<path d="M99.62 9.89505V7.27905H103.524V9.89505H99.62ZM99.908 20.2221V13.7401H98.582L98.889 11.1051H103.524V20.2211H99.908V20.2221ZM105.258 24.3761V11.1061H108.393L108.566 11.8371C108.937 11.5421 109.341 11.3171 109.777 11.1641C110.226 10.9971 110.745 10.9141 111.335 10.9141C112.694 10.9141 113.739 11.2601 114.47 11.9521C115.213 12.6321 115.585 13.7921 115.585 15.4331C115.585 17.0621 115.194 18.2991 114.412 19.1451C113.63 19.9911 112.553 20.4151 111.181 20.4151C110.271 20.4151 109.502 20.2411 108.873 19.8951V24.3751H105.258V24.3761ZM110.258 17.7801C110.784 17.7801 111.188 17.5941 111.47 17.2221C111.752 16.8501 111.893 16.2731 111.893 15.4911C111.893 14.7351 111.758 14.2211 111.489 13.9531C111.232 13.6831 110.835 13.5491 110.296 13.5491C109.758 13.5491 109.284 13.7291 108.873 14.0871V17.3181C109.079 17.4721 109.284 17.5881 109.489 17.6641C109.694 17.7411 109.95 17.7791 110.258 17.7791V17.7801ZM120.403 20.4141C119.621 20.4141 118.884 20.3561 118.192 20.2411C117.512 20.1391 116.974 20.0041 116.576 19.8371V17.2411C117.025 17.4461 117.557 17.6061 118.172 17.7211C118.801 17.8371 119.333 17.8951 119.768 17.8951C120.23 17.8951 120.576 17.8821 120.807 17.8561C121.051 17.8311 121.172 17.7221 121.172 17.5291C121.172 17.3121 120.961 17.1451 120.538 17.0291C120.001 16.8782 119.469 16.7114 118.942 16.5291C118.108 16.2351 117.486 15.8891 117.076 15.4911C116.666 15.0941 116.461 14.5171 116.461 13.7611C116.461 12.8501 116.82 12.1511 117.538 11.6641C118.256 11.1641 119.384 10.9141 120.922 10.9141C121.512 10.9141 122.121 10.9591 122.749 11.0491C123.377 11.1391 123.871 11.2411 124.23 11.3561V13.8951C123.823 13.7219 123.397 13.599 122.961 13.5291C122.555 13.4561 122.143 13.4176 121.73 13.4141C121.32 13.4141 120.954 13.4341 120.634 13.4721C120.313 13.5101 120.153 13.6191 120.153 13.7991C120.153 14.0041 120.333 14.1511 120.692 14.2411C121.063 14.3311 121.557 14.4711 122.172 14.6641C122.865 14.8691 123.403 15.0941 123.788 15.3371C124.185 15.5811 124.461 15.8761 124.615 16.2221C124.781 16.5681 124.865 16.9971 124.865 17.5101C124.865 18.4331 124.486 19.1511 123.73 19.6641C122.986 20.1641 121.877 20.4141 120.403 20.4141V20.4141ZM129.524 20.4141C128.46 20.4141 127.627 20.1131 127.024 19.5101C126.422 18.9081 126.121 18.0231 126.121 16.8561V11.1061H129.736V16.5681C129.736 17.3631 130.14 17.7601 130.947 17.7601C131.242 17.7601 131.531 17.6961 131.813 17.5681C132.095 17.4401 132.319 17.2801 132.486 17.0881V11.1061H136.101V20.2221H132.717L132.621 19.5291C132.262 19.7861 131.819 19.9971 131.294 20.1641C130.781 20.3311 130.191 20.4141 129.524 20.4141V20.4141ZM137.823 20.2221V11.1061H141.169L141.265 11.8371C141.676 11.5611 142.123 11.3412 142.592 11.1831C143.092 11.0031 143.637 10.9141 144.227 10.9141C144.816 10.9141 145.278 10.9971 145.611 11.1641C145.945 11.3311 146.214 11.5741 146.419 11.8941C146.829 11.6001 147.291 11.3631 147.804 11.1841C148.329 11.0041 148.945 10.9141 149.65 10.9141C150.714 10.9141 151.496 11.1961 151.996 11.7601C152.496 12.3121 152.746 13.1581 152.746 14.2991V20.2221H149.188V14.7221C149.188 14.3121 149.105 14.0231 148.938 13.8561C148.772 13.6761 148.496 13.5871 148.111 13.5871C147.611 13.5871 147.201 13.7671 146.881 14.1261C146.906 14.2921 146.919 14.4531 146.919 14.6061V20.2221H143.573V14.6641C143.573 14.2921 143.509 14.0241 143.381 13.8561C143.252 13.6761 143.009 13.5871 142.65 13.5871C142.4 13.5886 142.155 13.6548 141.938 13.7791C141.712 13.9034 141.505 14.0589 141.323 14.2411V20.2211H137.823V20.2221ZM96.951 35.9121C95.988 35.9121 95.187 35.7321 94.548 35.3711C93.9303 35.0129 93.4364 34.475 93.132 33.8291C92.817 33.1631 92.66 32.3851 92.66 31.4961C92.66 30.5241 92.808 29.6761 93.104 28.9541C93.4 28.2321 93.863 27.6761 94.493 27.2871C95.123 26.8891 95.937 26.6901 96.937 26.6901C97.456 26.6901 97.923 26.7271 98.34 26.8011C98.766 26.8751 99.164 26.9771 99.535 27.1071V28.1071C99.1519 27.9646 98.7566 27.8575 98.354 27.7871C97.9196 27.702 97.4777 27.6602 97.035 27.6621C96.229 27.6621 95.59 27.8151 95.118 28.1211C94.646 28.4261 94.308 28.8661 94.104 29.4411C93.9 30.0141 93.798 30.6991 93.798 31.4961C93.798 32.5981 94.058 33.4491 94.576 34.0511C95.104 34.6441 95.933 34.9411 97.062 34.9411C97.479 34.9411 97.9 34.9081 98.326 34.8431C98.7387 34.7838 99.1439 34.6812 99.535 34.5371V35.5511C99.1483 35.6678 98.7536 35.756 98.354 35.8151C97.8895 35.8832 97.4205 35.9156 96.951 35.9121V35.9121ZM104.211 35.9121C103.063 35.9121 102.225 35.6211 101.697 35.0371C101.179 34.4451 100.92 33.5931 100.92 32.4821C100.92 31.3801 101.184 30.5321 101.711 29.9401C102.239 29.3481 103.073 29.0511 104.211 29.0511C105.35 29.0511 106.184 29.3481 106.711 29.9411C107.239 30.5331 107.503 31.3801 107.503 32.4811C107.503 33.5931 107.244 34.4451 106.725 35.0371C106.207 35.6211 105.369 35.9121 104.211 35.9121ZM104.211 34.9401C104.998 34.9401 105.554 34.7461 105.878 34.3571C106.202 33.9591 106.364 33.3341 106.364 32.4821C106.364 31.6301 106.198 31.0101 105.864 30.6211C105.54 30.2231 104.989 30.0231 104.211 30.0231C103.434 30.0231 102.878 30.2231 102.545 30.6211C102.221 31.0101 102.059 31.6301 102.059 32.4811C102.059 33.3341 102.221 33.9591 102.545 34.3571C102.869 34.7461 103.424 34.9401 104.211 34.9401ZM108.895 35.7741V34.8151H109.923V35.7741H108.895Z" fill="#333237"/>
</svg>
