<svg width="auto" height="auto" viewBox="0 0 379 77" fill="none" xmlns="http://www.w3.org/2000/svg">
<g filter="url(#filter0_d)">
<path d="M12.6094 38.7423L42.8677 69.0001H55.9669L25.7077 38.7423H12.6094Z" fill="url(#paint0_linear)"/>
<g filter="url(#filter1_d)">
<path d="M64.7472 47.6503C76.6564 46.2843 85.9008 36.178 85.9008 23.9067C85.9008 11.969 77.1526 2.07639 65.7167 0.289543L61.6458 6.86646e-05H4L13.2765 9.26188H43.1066H61.995C70.0815 9.26188 76.6381 15.8189 76.6381 23.9067C76.6381 31.9946 70.0815 38.5511 61.995 38.5511H55.6499L41.1585 24.0588H28.0583L72.8475 68.8494H85.9467L64.7472 47.6503Z" fill="url(#paint1_linear)"/>
</g>
</g>
<path d="M116.644 28.436C118.949 28.436 120.648 28.878 121.74 29.762C122.849 30.6287 123.404 31.946 123.404 33.714C123.404 34.702 123.222 35.5253 122.858 36.184C122.494 36.8427 122.026 37.3713 121.454 37.77C120.899 38.1513 120.31 38.4547 119.686 38.68L124.782 47H122.052L117.554 39.33H113.862V47H111.522V28.436H116.644ZM116.514 30.464H113.862V37.354H116.644C118.152 37.354 119.253 37.0593 119.946 36.47C120.639 35.8633 120.986 34.9793 120.986 33.818C120.986 32.6047 120.622 31.7467 119.894 31.244C119.166 30.724 118.039 30.464 116.514 30.464ZM139.734 47L137.498 41.254H130.14L127.93 47H125.564L132.818 28.358H134.924L142.152 47H139.734ZM134.716 33.558C134.664 33.4193 134.577 33.168 134.456 32.804C134.334 32.44 134.213 32.0673 134.092 31.686C133.988 31.2873 133.901 30.984 133.832 30.776C133.71 31.3133 133.572 31.842 133.416 32.362C133.26 32.8647 133.13 33.2633 133.026 33.558L130.92 39.174H136.796L134.716 33.558ZM149.995 28.436C152.422 28.436 154.19 28.9127 155.299 29.866C156.409 30.8193 156.963 32.1627 156.963 33.896C156.963 34.9187 156.729 35.8807 156.261 36.782C155.811 37.666 155.039 38.3853 153.947 38.94C152.873 39.4947 151.408 39.772 149.553 39.772H147.421V47H145.081V28.436H149.995ZM149.787 30.438H147.421V37.77H149.293C151.061 37.77 152.379 37.484 153.245 36.912C154.112 36.34 154.545 35.3693 154.545 34C154.545 32.804 154.164 31.9113 153.401 31.322C152.639 30.7327 151.434 30.438 149.787 30.438ZM177.411 37.692C177.411 39.616 177.082 41.2973 176.423 42.736C175.782 44.1573 174.829 45.2667 173.563 46.064C172.298 46.8613 170.729 47.26 168.857 47.26C166.933 47.26 165.33 46.8613 164.047 46.064C162.782 45.2667 161.837 44.1487 161.213 42.71C160.589 41.2713 160.277 39.59 160.277 37.666C160.277 35.7593 160.589 34.0953 161.213 32.674C161.837 31.2527 162.782 30.1433 164.047 29.346C165.33 28.5487 166.942 28.15 168.883 28.15C170.738 28.15 172.298 28.5487 173.563 29.346C174.829 30.126 175.782 31.2353 176.423 32.674C177.082 34.0953 177.411 35.768 177.411 37.692ZM162.747 37.692C162.747 40.032 163.241 41.878 164.229 43.23C165.217 44.5647 166.76 45.232 168.857 45.232C170.972 45.232 172.515 44.5647 173.485 43.23C174.456 41.878 174.941 40.032 174.941 37.692C174.941 35.352 174.456 33.5233 173.485 32.206C172.515 30.8713 170.981 30.204 168.883 30.204C166.786 30.204 165.235 30.8713 164.229 32.206C163.241 33.5233 162.747 35.352 162.747 37.692ZM187.038 28.436C189.343 28.436 191.042 28.878 192.134 29.762C193.243 30.6287 193.798 31.946 193.798 33.714C193.798 34.702 193.616 35.5253 193.252 36.184C192.888 36.8427 192.42 37.3713 191.848 37.77C191.293 38.1513 190.704 38.4547 190.08 38.68L195.176 47H192.446L187.948 39.33H184.256V47H181.916V28.436H187.038ZM186.908 30.464H184.256V37.354H187.038C188.546 37.354 189.647 37.0593 190.34 36.47C191.033 35.8633 191.38 34.9793 191.38 33.818C191.38 32.6047 191.016 31.7467 190.288 31.244C189.56 30.724 188.433 30.464 186.908 30.464ZM204.356 47H202.016V30.49H196.218V28.436H210.128V30.49H204.356V47ZM231.428 41.852C231.428 43.4987 230.83 44.816 229.634 45.804C228.455 46.7747 226.774 47.26 224.59 47.26C222.631 47.26 220.881 46.8873 219.338 46.142V42.476C220.222 42.8573 221.132 43.2127 222.068 43.542C223.021 43.854 223.966 44.01 224.902 44.01C225.873 44.01 226.557 43.828 226.956 43.464C227.372 43.0827 227.58 42.606 227.58 42.034C227.58 41.566 227.415 41.1673 227.086 40.838C226.774 40.5087 226.349 40.2053 225.812 39.928C225.275 39.6333 224.659 39.3213 223.966 38.992C223.533 38.784 223.065 38.5413 222.562 38.264C222.059 37.9693 221.574 37.614 221.106 37.198C220.655 36.7647 220.283 36.2447 219.988 35.638C219.693 35.0313 219.546 34.3033 219.546 33.454C219.546 31.79 220.109 30.4987 221.236 29.58C222.363 28.644 223.897 28.176 225.838 28.176C226.809 28.176 227.727 28.2887 228.594 28.514C229.478 28.7393 230.397 29.06 231.35 29.476L230.076 32.544C229.227 32.1973 228.464 31.9287 227.788 31.738C227.112 31.5473 226.419 31.452 225.708 31.452C224.963 31.452 224.391 31.6253 223.992 31.972C223.593 32.3187 223.394 32.7693 223.394 33.324C223.394 33.9827 223.689 34.5027 224.278 34.884C224.867 35.2653 225.743 35.7333 226.904 36.288C227.857 36.7387 228.663 37.2067 229.322 37.692C229.998 38.1773 230.518 38.7493 230.882 39.408C231.246 40.0667 231.428 40.8813 231.428 41.852ZM245.878 47H235.192V28.436H245.878V31.66H239.118V35.742H245.41V38.966H239.118V43.75H245.878V47ZM255.539 28.436C258.07 28.436 259.933 28.8953 261.129 29.814C262.343 30.7327 262.949 32.128 262.949 34C262.949 34.8493 262.785 35.5947 262.455 36.236C262.143 36.86 261.719 37.3973 261.181 37.848C260.661 38.2813 260.098 38.6367 259.491 38.914L264.951 47H260.583L256.163 39.876H254.057V47H250.131V28.436H255.539ZM255.253 31.66H254.057V36.678H255.331C256.631 36.678 257.559 36.4613 258.113 36.028C258.685 35.5947 258.971 34.9533 258.971 34.104C258.971 33.22 258.668 32.596 258.061 32.232C257.472 31.8507 256.536 31.66 255.253 31.66ZM290.487 28.436L285.755 47H281.283L278.761 37.25C278.709 37.0593 278.64 36.7733 278.553 36.392C278.484 36.0107 278.397 35.5947 278.293 35.144C278.207 34.6933 278.129 34.2687 278.059 33.87C277.99 33.454 277.938 33.1333 277.903 32.908C277.886 33.1333 277.834 33.454 277.747 33.87C277.678 34.2687 277.6 34.6933 277.513 35.144C277.427 35.5773 277.34 35.9933 277.253 36.392C277.167 36.7733 277.097 37.068 277.045 37.276L274.549 47H270.077L265.345 28.436H269.219L271.585 38.576C271.689 38.9747 271.802 39.4773 271.923 40.084C272.045 40.6907 272.157 41.2973 272.261 41.904C272.365 42.5107 272.443 43.022 272.495 43.438C272.547 43.0047 272.625 42.4933 272.729 41.904C272.833 41.2973 272.937 40.7167 273.041 40.162C273.163 39.59 273.267 39.148 273.353 38.836L276.057 28.436H279.775L282.479 38.836C282.566 39.1307 282.661 39.564 282.765 40.136C282.887 40.708 282.999 41.2973 283.103 41.904C283.207 42.5107 283.285 43.022 283.337 43.438C283.389 43.0047 283.467 42.4933 283.571 41.904C283.675 41.2973 283.788 40.6907 283.909 40.084C284.048 39.4773 284.161 38.9747 284.247 38.576L286.613 28.436H290.487ZM300.154 47H291.704V44.764L293.966 43.724V31.712L291.704 30.672V28.436H300.154V30.672L297.892 31.712V43.724L300.154 44.764V47ZM314.653 41.852C314.653 43.4987 314.055 44.816 312.859 45.804C311.681 46.7747 309.999 47.26 307.815 47.26C305.857 47.26 304.106 46.8873 302.563 46.142V42.476C303.447 42.8573 304.357 43.2127 305.293 43.542C306.247 43.854 307.191 44.01 308.127 44.01C309.098 44.01 309.783 43.828 310.181 43.464C310.597 43.0827 310.805 42.606 310.805 42.034C310.805 41.566 310.641 41.1673 310.311 40.838C309.999 40.5087 309.575 40.2053 309.037 39.928C308.5 39.6333 307.885 39.3213 307.191 38.992C306.758 38.784 306.29 38.5413 305.787 38.264C305.285 37.9693 304.799 37.614 304.331 37.198C303.881 36.7647 303.508 36.2447 303.213 35.638C302.919 35.0313 302.771 34.3033 302.771 33.454C302.771 31.79 303.335 30.4987 304.461 29.58C305.588 28.644 307.122 28.176 309.063 28.176C310.034 28.176 310.953 28.2887 311.819 28.514C312.703 28.7393 313.622 29.06 314.575 29.476L313.301 32.544C312.452 32.1973 311.689 31.9287 311.013 31.738C310.337 31.5473 309.644 31.452 308.933 31.452C308.188 31.452 307.616 31.6253 307.217 31.972C306.819 32.3187 306.619 32.7693 306.619 33.324C306.619 33.9827 306.914 34.5027 307.503 34.884C308.093 35.2653 308.968 35.7333 310.129 36.288C311.083 36.7387 311.889 37.2067 312.547 37.692C313.223 38.1773 313.743 38.7493 314.107 39.408C314.471 40.0667 314.653 40.8813 314.653 41.852ZM335.266 37.692C335.266 39.616 334.945 41.2973 334.304 42.736C333.68 44.1573 332.718 45.2667 331.418 46.064C330.118 46.8613 328.454 47.26 326.426 47.26C324.415 47.26 322.751 46.8613 321.434 46.064C320.134 45.2667 319.163 44.1487 318.522 42.71C317.898 41.2713 317.586 39.59 317.586 37.666C317.586 35.742 317.898 34.0693 318.522 32.648C319.163 31.2267 320.134 30.126 321.434 29.346C322.751 28.5487 324.424 28.15 326.452 28.15C328.462 28.15 330.118 28.5487 331.418 29.346C332.718 30.126 333.68 31.2353 334.304 32.674C334.945 34.0953 335.266 35.768 335.266 37.692ZM321.72 37.692C321.72 39.6333 322.092 41.1673 322.838 42.294C323.583 43.4033 324.779 43.958 326.426 43.958C328.107 43.958 329.312 43.4033 330.04 42.294C330.768 41.1673 331.132 39.6333 331.132 37.692C331.132 35.7333 330.768 34.1993 330.04 33.09C329.312 31.9807 328.116 31.426 326.452 31.426C324.788 31.426 323.583 31.9807 322.838 33.09C322.092 34.1993 321.72 35.7333 321.72 37.692ZM362.049 28.436L357.317 47H352.845L350.323 37.25C350.271 37.0593 350.202 36.7733 350.115 36.392C350.046 36.0107 349.959 35.5947 349.855 35.144C349.769 34.6933 349.691 34.2687 349.621 33.87C349.552 33.454 349.5 33.1333 349.465 32.908C349.448 33.1333 349.396 33.454 349.309 33.87C349.24 34.2687 349.162 34.6933 349.075 35.144C348.989 35.5773 348.902 35.9933 348.815 36.392C348.729 36.7733 348.659 37.068 348.607 37.276L346.111 47H341.639L336.907 28.436H340.781L343.147 38.576C343.251 38.9747 343.364 39.4773 343.485 40.084C343.607 40.6907 343.719 41.2973 343.823 41.904C343.927 42.5107 344.005 43.022 344.057 43.438C344.109 43.0047 344.187 42.4933 344.291 41.904C344.395 41.2973 344.499 40.7167 344.603 40.162C344.725 39.59 344.829 39.148 344.915 38.836L347.619 28.436H351.337L354.041 38.836C354.128 39.1307 354.223 39.564 354.327 40.136C354.449 40.708 354.561 41.2973 354.665 41.904C354.769 42.5107 354.847 43.022 354.899 43.438C354.951 43.0047 355.029 42.4933 355.133 41.904C355.237 41.2973 355.35 40.6907 355.471 40.084C355.61 39.4773 355.723 38.9747 355.809 38.576L358.175 28.436H362.049ZM370.546 36.08L374.42 28.436H378.658L372.496 39.772V47H368.596V39.902L362.434 28.436H366.698L370.546 36.08Z" fill="black"/>
<defs>
<filter id="filter0_d" x="0" y="0.00012207" width="89.9467" height="77" filterUnits="userSpaceOnUse" color-interpolation-filters="sRGB">
<feFlood flood-opacity="0" result="BackgroundImageFix"/>
<feColorMatrix in="SourceAlpha" type="matrix" values="0 0 0 0 0 0 0 0 0 0 0 0 0 0 0 0 0 0 127 0"/>
<feOffset dy="4"/>
<feGaussianBlur stdDeviation="2"/>
<feColorMatrix type="matrix" values="0 0 0 0 0 0 0 0 0 0 0 0 0 0 0 0 0 0 0.15 0"/>
<feBlend mode="normal" in2="BackgroundImageFix" result="effect1_dropShadow"/>
<feBlend mode="normal" in="SourceGraphic" in2="effect1_dropShadow" result="shape"/>
</filter>
<filter id="filter1_d" x="0" y="0.00012207" width="89.9467" height="76.8493" filterUnits="userSpaceOnUse" color-interpolation-filters="sRGB">
<feFlood flood-opacity="0" result="BackgroundImageFix"/>
<feColorMatrix in="SourceAlpha" type="matrix" values="0 0 0 0 0 0 0 0 0 0 0 0 0 0 0 0 0 0 127 0"/>
<feOffset dy="4"/>
<feGaussianBlur stdDeviation="2"/>
<feColorMatrix type="matrix" values="0 0 0 0 0 0 0 0 0 0 0 0 0 0 0 0 0 0 0.16 0"/>
<feBlend mode="normal" in2="BackgroundImageFix" result="effect1_dropShadow"/>
<feBlend mode="normal" in="SourceGraphic" in2="effect1_dropShadow" result="shape"/>
</filter>
<linearGradient id="paint0_linear" x1="12.6094" y1="53.8715" x2="55.9654" y2="53.8715" gradientUnits="userSpaceOnUse">
<stop stop-color="#45E6C9"/>
<stop offset="0.510084" stop-color="#5673E6"/>
<stop offset="0.514925" stop-color="#5673E6"/>
<stop offset="0.983578" stop-color="#4845A6"/>
<stop offset="1" stop-color="#4845A6"/>
</linearGradient>
<linearGradient id="paint1_linear" x1="4" y1="34.4247" x2="85.9476" y2="34.4247" gradientUnits="userSpaceOnUse">
<stop stop-color="#E63CB6"/>
<stop offset="0.510084" stop-color="#8B3BE6"/>
<stop offset="0.514925" stop-color="#8B3BE6"/>
<stop offset="0.983578" stop-color="#3532A6"/>
<stop offset="1" stop-color="#3532A6"/>
</linearGradient>
</defs>
</svg>
