<svg width="71" height="61" viewBox="0 0 71 61" fill="none" xmlns="http://www.w3.org/2000/svg">
<g filter="url(#filter0_d)">
<path d="M10.6138 29.7585L33.8556 53H43.9173L20.6748 29.7585H10.6138Z" fill="url(#paint0_linear)"/>
<g filter="url(#filter1_d)">
<path d="M50.6608 36.6008C59.8085 35.5516 66.9092 27.7888 66.9092 18.3631C66.9092 9.19352 60.1896 1.59483 51.4055 0.222324L48.2786 -2.28882e-05H4L11.1254 7.11412H34.0384H48.5468C54.7582 7.11412 59.7944 12.1506 59.7944 18.3631C59.7944 24.5755 54.7582 29.6116 48.5468 29.6116H43.673L32.542 18.4799H22.4795L56.8828 52.8842H66.9445L50.6608 36.6008Z" fill="url(#paint1_linear)"/>
</g>
</g>
<defs>
<filter id="filter0_d" x="0" y="0" width="70.9445" height="61" filterUnits="userSpaceOnUse" color-interpolation-filters="sRGB">
<feFlood flood-opacity="0" result="BackgroundImageFix"/>
<feColorMatrix in="SourceAlpha" type="matrix" values="0 0 0 0 0 0 0 0 0 0 0 0 0 0 0 0 0 0 127 0"/>
<feOffset dy="4"/>
<feGaussianBlur stdDeviation="2"/>
<feColorMatrix type="matrix" values="0 0 0 0 0 0 0 0 0 0 0 0 0 0 0 0 0 0 0.15 0"/>
<feBlend mode="normal" in2="BackgroundImageFix" result="effect1_dropShadow"/>
<feBlend mode="normal" in="SourceGraphic" in2="effect1_dropShadow" result="shape"/>
</filter>
<filter id="filter1_d" x="0" y="0" width="70.9445" height="60.8842" filterUnits="userSpaceOnUse" color-interpolation-filters="sRGB">
<feFlood flood-opacity="0" result="BackgroundImageFix"/>
<feColorMatrix in="SourceAlpha" type="matrix" values="0 0 0 0 0 0 0 0 0 0 0 0 0 0 0 0 0 0 127 0"/>
<feOffset dy="4"/>
<feGaussianBlur stdDeviation="2"/>
<feColorMatrix type="matrix" values="0 0 0 0 0 0 0 0 0 0 0 0 0 0 0 0 0 0 0.16 0"/>
<feBlend mode="normal" in2="BackgroundImageFix" result="effect1_dropShadow"/>
<feBlend mode="normal" in="SourceGraphic" in2="effect1_dropShadow" result="shape"/>
</filter>
<linearGradient id="paint0_linear" x1="10.6138" y1="41.3794" x2="43.9162" y2="41.3794" gradientUnits="userSpaceOnUse">
<stop stop-color="#45E6C9"/>
<stop offset="0.510084" stop-color="#5673E6"/>
<stop offset="0.514925" stop-color="#5673E6"/>
<stop offset="0.983578" stop-color="#4845A6"/>
<stop offset="1" stop-color="#4845A6"/>
</linearGradient>
<linearGradient id="paint1_linear" x1="4" y1="26.4421" x2="66.9452" y2="26.4421" gradientUnits="userSpaceOnUse">
<stop stop-color="#E63CB6"/>
<stop offset="0.510084" stop-color="#8B3BE6"/>
<stop offset="0.514925" stop-color="#8B3BE6"/>
<stop offset="0.983578" stop-color="#3532A6"/>
<stop offset="1" stop-color="#3532A6"/>
</linearGradient>
</defs>
</svg>
